<?xml version="1.0" standalone="no"?>
<!DOCTYPE svg PUBLIC "-//W3C//DTD SVG 20010904//EN"
 "http://www.w3.org/TR/2001/REC-SVG-20010904/DTD/svg10.dtd">
<svg version="1.0" xmlns="http://www.w3.org/2000/svg"
 width="250.000000pt" height="250.000000pt" viewBox="0 0 250.000000 250.000000"
 preserveAspectRatio="xMidYMid meet">
<metadata>
Created by potrace 1.11, written by Peter Selinger 2001-2013
</metadata>
<g transform="translate(0.000000,250.000000) scale(0.100000,-0.100000)"
fill="#000000" stroke="none">
<path d="M2098 1665 c-7 -15 -17 -24 -25 -21 -10 4 -12 -1 -7 -19 5 -18 -11
-56 -62 -152 -93 -175 -157 -306 -184 -381 -27 -73 -35 -82 -44 -45 -4 14 -32
78 -63 142 -30 64 -63 141 -73 171 -10 30 -34 97 -54 148 -20 52 -36 102 -36
111 0 23 -41 42 -63 30 -9 -5 -23 -32 -31 -60 -8 -27 -39 -89 -68 -137 -66
-109 -73 -121 -174 -320 -46 -90 -92 -175 -102 -190 -10 -15 -25 -42 -32 -61
-13 -31 -12 -34 10 -51 13 -10 29 -16 35 -14 18 7 166 10 170 4 5 -8 36 -6 51
2 20 13 236 7 250 -7 13 -12 38 -12 189 -1 176 14 410 19 520 13 33 -2 66 1
73 6 7 6 26 10 41 9 16 0 36 7 45 17 14 16 15 20 2 30 -8 7 -33 65 -56 129
-23 64 -46 126 -50 137 -4 11 -20 54 -36 95 -15 41 -37 98 -49 125 -43 96 -90
216 -100 254 -9 29 -36 61 -52 61 -8 0 -19 -11 -25 -25z"/>
<path d="M84 1555 c6 -23 5 -24 -13 -13 -28 17 -47 -1 -32 -29 14 -26 21 -105
26 -293 4 -156 7 -188 26 -270 5 -25 12 -67 14 -93 5 -45 25 -83 39 -70 3 3
13 0 21 -7 13 -11 39 -2 168 63 200 99 238 117 253 117 7 0 14 4 16 8 4 10
216 101 244 105 11 1 32 12 46 23 14 11 44 28 66 38 22 10 43 25 46 32 8 21
-4 44 -24 44 -10 0 -24 7 -31 17 -27 32 -174 93 -421 174 -171 56 -279 97
-340 130 -49 27 -94 49 -100 49 -6 0 -8 -10 -4 -25z"/>
</g>
</svg>
